<?xml version="1.0" standalone="no"?><svg xmlns="http://www.w3.org/2000/svg" viewBox="0 0 1440 320"><path fill="#ffd700" fill-opacity="1" d="M0,288L18.5,266.7C36.9,245,74,203,111,181.3C147.7,160,185,160,222,181.3C258.5,203,295,245,332,224C369.2,203,406,117,443,117.3C480,117,517,203,554,202.7C590.8,203,628,117,665,90.7C701.5,64,738,96,775,138.7C812.3,181,849,235,886,234.7C923.1,235,960,181,997,186.7C1033.8,192,1071,256,1108,250.7C1144.6,245,1182,171,1218,144C1255.4,117,1292,139,1329,133.3C1366.2,128,1403,96,1422,80L1440,64L1440,320L1421.5,320C1403.1,320,1366,320,1329,320C1292.3,320,1255,320,1218,320C1181.5,320,1145,320,1108,320C1070.8,320,1034,320,997,320C960,320,923,320,886,320C849.2,320,812,320,775,320C738.5,320,702,320,665,320C627.7,320,591,320,554,320C516.9,320,480,320,443,320C406.2,320,369,320,332,320C295.4,320,258,320,222,320C184.6,320,148,320,111,320C73.8,320,37,320,18,320L0,320Z"></path></svg>